<svg width="148" height="40" viewBox="0 0 148 40" fill="none" xmlns="http://www.w3.org/2000/svg">
<path d="M98.3669 0V29.0444C101.924 29.211 105.473 29.4125 109.011 29.6502V35.808C103.418 35.4325 97.8008 35.1459 92.1607 34.9505V0H98.3669ZM147.684 0.00344089L139.603 18.8713L147.682 39.8677L147.673 39.8717C145.32 39.5336 142.963 39.2144 140.6 38.9084L136.063 27.124L131.482 37.8144C129.312 37.5731 127.138 37.3447 124.96 37.1307L132.838 18.7452L125.623 0.00344089H132.337L136.376 10.4915L140.868 0.00344089H147.684ZM70.8608 34.6453L70.8606 0.00332955H88.1851V6.21644H77.0669V14.2689H85.4793V20.4267H77.0669V34.6439L70.8608 34.6453ZM47.6869 6.21695L47.6866 0.00300567H66.8822V6.21652H60.3874V34.8139C58.3159 34.8685 56.2466 34.9332 54.1815 35.0116V6.21695H47.6869ZM26.4704 36.8018V0.00404806H43.7085V6.21716H32.6757V14.6333C35.2103 14.6006 38.8142 14.5636 41.0563 14.5691V20.7273C38.2497 20.6922 35.0817 20.7661 32.6757 20.7903V30.113C36.3425 29.8225 40.0205 29.5684 43.7085 29.3539V35.5122C37.9363 35.8471 32.1901 36.2784 26.4704 36.8018ZM14.2961 22.5664L14.2957 0.00303611H20.5019V37.3823C18.2332 37.6173 15.9687 37.8674 13.7082 38.1314L6.52177 17.3404V39.0219C4.44907 39.2938 2.38058 39.5772 0.315918 39.8731V0.00344089H6.21387L14.2961 22.5664ZM114.131 36.1794V36.1795V0.00348119H120.337V36.6956C118.271 36.5104 116.203 36.3391 114.131 36.1794Z" fill="#DB202C"/>
</svg>
